<mxfile host="app.diagrams.net" modified="2024-04-02T12:24:29.404Z" agent="Mozilla/5.0 (Windows NT 10.0; Win64; x64) AppleWebKit/537.36 (KHTML, like Gecko) Chrome/123.0.0.0 Safari/537.36" etag="MhJ-qLYq19rEIuW7Ul61" version="24.0.7" type="device">
  <diagram name="Страница — 1" id="tKzkZ0Yz1kWJOmBxlUXI">
    <mxGraphModel dx="1434" dy="746" grid="1" gridSize="10" guides="1" tooltips="1" connect="1" arrows="1" fold="1" page="1" pageScale="1" pageWidth="827" pageHeight="1169" math="0" shadow="0">
      <root>
        <mxCell id="0" />
        <mxCell id="1" parent="0" />
        <mxCell id="P10qKV3tCpSpcJyBq2Jr-11" value="&lt;div&gt;&lt;br&gt;&lt;/div&gt;&lt;div&gt;&lt;br&gt;&lt;/div&gt;&lt;div&gt;&lt;br&gt;&lt;/div&gt;&lt;div&gt;&lt;br&gt;&lt;/div&gt;&lt;div&gt;&lt;br&gt;&lt;/div&gt;&lt;div&gt;&lt;br&gt;&lt;/div&gt;&lt;div&gt;&lt;br&gt;&lt;/div&gt;&lt;div&gt;&lt;br&gt;&lt;/div&gt;&lt;div&gt;&lt;br&gt;&lt;/div&gt;&lt;div&gt;&lt;br&gt;&lt;/div&gt;&lt;div&gt;&lt;br&gt;&lt;/div&gt;&lt;div&gt;&lt;br&gt;&lt;/div&gt;&lt;div&gt;&lt;br&gt;&lt;/div&gt;&lt;div&gt;ROUTER&lt;/div&gt;" style="rounded=1;whiteSpace=wrap;html=1;" parent="1" vertex="1">
          <mxGeometry x="40" y="110" width="670" height="230" as="geometry" />
        </mxCell>
        <mxCell id="P10qKV3tCpSpcJyBq2Jr-4" style="edgeStyle=orthogonalEdgeStyle;rounded=0;orthogonalLoop=1;jettySize=auto;html=1;exitX=0.5;exitY=1;exitDx=0;exitDy=0;" parent="1" source="P10qKV3tCpSpcJyBq2Jr-1" target="P10qKV3tCpSpcJyBq2Jr-3" edge="1">
          <mxGeometry relative="1" as="geometry" />
        </mxCell>
        <mxCell id="P10qKV3tCpSpcJyBq2Jr-6" style="edgeStyle=orthogonalEdgeStyle;rounded=0;orthogonalLoop=1;jettySize=auto;html=1;exitX=0.5;exitY=1;exitDx=0;exitDy=0;entryX=0.5;entryY=0;entryDx=0;entryDy=0;" parent="1" source="P10qKV3tCpSpcJyBq2Jr-1" target="P10qKV3tCpSpcJyBq2Jr-5" edge="1">
          <mxGeometry relative="1" as="geometry">
            <mxPoint x="560" y="160" as="targetPoint" />
          </mxGeometry>
        </mxCell>
        <mxCell id="P10qKV3tCpSpcJyBq2Jr-8" style="edgeStyle=orthogonalEdgeStyle;rounded=0;orthogonalLoop=1;jettySize=auto;html=1;exitX=0.5;exitY=1;exitDx=0;exitDy=0;" parent="1" source="P10qKV3tCpSpcJyBq2Jr-1" target="P10qKV3tCpSpcJyBq2Jr-7" edge="1">
          <mxGeometry relative="1" as="geometry" />
        </mxCell>
        <mxCell id="P10qKV3tCpSpcJyBq2Jr-10" style="edgeStyle=orthogonalEdgeStyle;rounded=0;orthogonalLoop=1;jettySize=auto;html=1;exitX=1;exitY=0.5;exitDx=0;exitDy=0;entryX=0;entryY=0.5;entryDx=0;entryDy=0;" parent="1" source="P10qKV3tCpSpcJyBq2Jr-1" target="P10qKV3tCpSpcJyBq2Jr-9" edge="1">
          <mxGeometry relative="1" as="geometry" />
        </mxCell>
        <mxCell id="P10qKV3tCpSpcJyBq2Jr-1" value="App" style="rounded=1;whiteSpace=wrap;html=1;" parent="1" vertex="1">
          <mxGeometry x="290" y="20" width="170" height="80" as="geometry" />
        </mxCell>
        <mxCell id="P10qKV3tCpSpcJyBq2Jr-3" value="EmployeesAddPage" style="rounded=1;whiteSpace=wrap;html=1;" parent="1" vertex="1">
          <mxGeometry x="315" y="180" width="120" height="60" as="geometry" />
        </mxCell>
        <mxCell id="P10qKV3tCpSpcJyBq2Jr-15" style="edgeStyle=orthogonalEdgeStyle;rounded=0;orthogonalLoop=1;jettySize=auto;html=1;exitX=0.5;exitY=1;exitDx=0;exitDy=0;" parent="1" source="P10qKV3tCpSpcJyBq2Jr-5" target="P10qKV3tCpSpcJyBq2Jr-12" edge="1">
          <mxGeometry relative="1" as="geometry" />
        </mxCell>
        <mxCell id="P10qKV3tCpSpcJyBq2Jr-17" style="edgeStyle=orthogonalEdgeStyle;rounded=0;orthogonalLoop=1;jettySize=auto;html=1;exitX=0.5;exitY=1;exitDx=0;exitDy=0;entryX=0.5;entryY=0;entryDx=0;entryDy=0;" parent="1" source="P10qKV3tCpSpcJyBq2Jr-5" target="P10qKV3tCpSpcJyBq2Jr-16" edge="1">
          <mxGeometry relative="1" as="geometry" />
        </mxCell>
        <mxCell id="3Gw8Dd0Dh6-EDNdFxkwu-2" style="edgeStyle=orthogonalEdgeStyle;rounded=0;orthogonalLoop=1;jettySize=auto;html=1;exitX=0.5;exitY=1;exitDx=0;exitDy=0;" edge="1" parent="1" source="P10qKV3tCpSpcJyBq2Jr-5" target="3Gw8Dd0Dh6-EDNdFxkwu-1">
          <mxGeometry relative="1" as="geometry" />
        </mxCell>
        <mxCell id="P10qKV3tCpSpcJyBq2Jr-5" value="EmployeesPage" style="rounded=1;whiteSpace=wrap;html=1;" parent="1" vertex="1">
          <mxGeometry x="510" y="180" width="120" height="60" as="geometry" />
        </mxCell>
        <mxCell id="P10qKV3tCpSpcJyBq2Jr-7" value="notFoundPage" style="rounded=1;whiteSpace=wrap;html=1;" parent="1" vertex="1">
          <mxGeometry x="120" y="180" width="120" height="60" as="geometry" />
        </mxCell>
        <mxCell id="P10qKV3tCpSpcJyBq2Jr-9" value="Menu" style="rounded=1;whiteSpace=wrap;html=1;" parent="1" vertex="1">
          <mxGeometry x="620" y="40" width="120" height="60" as="geometry" />
        </mxCell>
        <mxCell id="P10qKV3tCpSpcJyBq2Jr-12" value="EmployeesTabel&lt;div&gt;?&lt;/div&gt;" style="rounded=0;whiteSpace=wrap;html=1;fillColor=#dae8fc;strokeColor=#6c8ebf;" parent="1" vertex="1">
          <mxGeometry x="435" y="330" width="120" height="60" as="geometry" />
        </mxCell>
        <mxCell id="P10qKV3tCpSpcJyBq2Jr-16" value="EmployeesList&lt;div&gt;?&lt;/div&gt;" style="rounded=0;whiteSpace=wrap;html=1;fillColor=#dae8fc;strokeColor=#6c8ebf;" parent="1" vertex="1">
          <mxGeometry x="580" y="330" width="120" height="60" as="geometry" />
        </mxCell>
        <mxCell id="P10qKV3tCpSpcJyBq2Jr-19" value="employees" style="shape=parallelogram;perimeter=parallelogramPerimeter;whiteSpace=wrap;html=1;fixedSize=1;fillColor=#d5e8d4;gradientColor=#97d077;strokeColor=#82b366;" parent="1" vertex="1">
          <mxGeometry x="270" y="20" width="90" height="30" as="geometry" />
        </mxCell>
        <mxCell id="P10qKV3tCpSpcJyBq2Jr-20" value="employees" style="shape=parallelogram;perimeter=parallelogramPerimeter;whiteSpace=wrap;html=1;fixedSize=1;fillColor=#1ba1e2;strokeColor=#006EAF;dashed=1;dashPattern=1 4;labelBackgroundColor=none;fontColor=#ffffff;" parent="1" vertex="1">
          <mxGeometry x="525" y="140" width="90" height="30" as="geometry" />
        </mxCell>
        <mxCell id="P10qKV3tCpSpcJyBq2Jr-22" value="employees" style="shape=parallelogram;perimeter=parallelogramPerimeter;whiteSpace=wrap;html=1;fixedSize=1;fillColor=#1ba1e2;strokeColor=#006EAF;dashed=1;dashPattern=1 4;labelBackgroundColor=none;fontColor=#ffffff;" parent="1" vertex="1">
          <mxGeometry x="450" y="280" width="90" height="30" as="geometry" />
        </mxCell>
        <mxCell id="P10qKV3tCpSpcJyBq2Jr-23" value="employees" style="shape=parallelogram;perimeter=parallelogramPerimeter;whiteSpace=wrap;html=1;fixedSize=1;fillColor=#1ba1e2;strokeColor=#006EAF;dashed=1;dashPattern=1 4;labelBackgroundColor=none;fontColor=#ffffff;" parent="1" vertex="1">
          <mxGeometry x="590" y="280" width="90" height="30" as="geometry" />
        </mxCell>
        <mxCell id="3Gw8Dd0Dh6-EDNdFxkwu-1" value="EmployeesMenu&lt;div&gt;?&lt;/div&gt;" style="rounded=0;whiteSpace=wrap;html=1;fillColor=#dae8fc;strokeColor=#6c8ebf;" vertex="1" parent="1">
          <mxGeometry x="730" y="330" width="120" height="60" as="geometry" />
        </mxCell>
        <mxCell id="3Gw8Dd0Dh6-EDNdFxkwu-3" value="employees" style="shape=parallelogram;perimeter=parallelogramPerimeter;whiteSpace=wrap;html=1;fixedSize=1;fillColor=#1ba1e2;strokeColor=#006EAF;dashed=1;dashPattern=1 4;labelBackgroundColor=none;fontColor=#ffffff;" vertex="1" parent="1">
          <mxGeometry x="730" y="280" width="90" height="30" as="geometry" />
        </mxCell>
      </root>
    </mxGraphModel>
  </diagram>
</mxfile>
